<svg width="24" height="24" viewBox="0 0 24 24" fill="none" xmlns="http://www.w3.org/2000/svg">
    <defs>
        <clipPath id="clip0_1975_37993">
            <rect width="24" height="24" fill="white" transform="translate(0 0.000976562)" />
        </clipPath>
    </defs>
    <g clip-path="url(#clip0_1975_37993)">
        <path fill-rule="evenodd" clip-rule="evenodd"
            d="M12 6.00098C12.4734 6.00098 12.8571 6.38473 12.8571 6.85812V11.1438H17.1429C17.6162 11.1438 18 11.5276 18 12.001C18 12.4744 17.6162 12.8581 17.1429 12.8581H12.8571V17.1438C12.8571 17.6172 12.4734 18.001 12 18.001C11.5266 18.001 11.1429 17.6172 11.1429 17.1438V12.8581H6.85714C6.38376 12.8581 6 12.4744 6 12.001C6 11.5276 6.38376 11.1438 6.85714 11.1438H11.1429V6.85812C11.1429 6.38473 11.5266 6.00098 12 6.00098Z"
            fill="#2936A6" />
        <path fill-rule="evenodd" clip-rule="evenodd"
            d="M6 0.000976562C2.68629 0.000976562 0 2.68727 0 6.00098V18.001C0 21.3147 2.68629 24.001 6 24.001H18C21.3137 24.001 24 21.3147 24 18.001V6.00098C24 2.68727 21.3137 0.000976562 18 0.000976562H6ZM1.71429 6.00098C1.71429 3.63404 3.63307 1.71526 6 1.71526H18C20.3669 1.71526 22.2857 3.63404 22.2857 6.00098V18.001C22.2857 20.3679 20.3669 22.2867 18 22.2867H6C3.63307 22.2867 1.71429 20.3679 1.71429 18.001V6.00098Z"
            fill="#2936A6" />
    </g>
</svg>
