<svg width="14" height="14" viewBox="0 0 14 14" fill="none" xmlns="http://www.w3.org/2000/svg">
    <path fill-rule="evenodd" clip-rule="evenodd"
        d="M4 0.5C4 0.223858 3.77614 0 3.5 0C3.22386 0 3 0.223858 3 0.5V4.5C3 4.77614 3.22386 5 3.5 5C3.77614 5 4 4.77614 4 4.5V3H8.5C8.77614 3 9 2.77614 9 2.5C9 2.22386 8.77614 2 8.5 2H4V0.5Z"
        fill="black" fill-opacity="0.25" />
    <path fill-rule="evenodd" clip-rule="evenodd"
        d="M0.43934 2.43934C0.720644 2.15804 1.10218 2 1.5 2C1.77614 2 2 2.22386 2 2.5C2 2.77614 1.77614 3 1.5 3C1.36739 3 1.24021 3.05268 1.14645 3.14645C1.05268 3.24021 1 3.36739 1 3.5V6H13V3.5C13 3.36739 12.9473 3.24021 12.8536 3.14645C12.7598 3.05268 12.6326 3 12.5 3H11V4.5C11 4.77614 10.7761 5 10.5 5C10.2239 5 10 4.77614 10 4.5V0.5C10 0.223858 10.2239 0 10.5 0C10.7761 0 11 0.223858 11 0.5V2H12.5C12.8978 2 13.2794 2.15804 13.5607 2.43934C13.842 2.72064 14 3.10217 14 3.5V12.5C14 12.8978 13.842 13.2794 13.5607 13.5607C13.2794 13.842 12.8978 14 12.5 14H1.5C1.10217 14 0.720644 13.842 0.43934 13.5607C0.158035 13.2794 0 12.8978 0 12.5V3.5C0 3.10218 0.158035 2.72064 0.43934 2.43934ZM1 12.5V7H13V12.5C13 12.6326 12.9473 12.7598 12.8536 12.8536C12.7598 12.9473 12.6326 13 12.5 13H1.5C1.36739 13 1.24022 12.9473 1.14645 12.8536C1.05268 12.7598 1 12.6326 1 12.5Z"
        fill="black" fill-opacity="0.25" />
</svg>
