<svg width="22" height="22" viewBox="0 0 22 22" fill="none" xmlns="http://www.w3.org/2000/svg">
    <path fill-rule="evenodd" clip-rule="evenodd"
        d="M11 4.71429C11.4339 4.71429 11.7857 5.06606 11.7857 5.5V10.2143C11.7857 10.6482 11.4339 11 11 11C10.5661 11 10.2143 10.6482 10.2143 10.2143V5.5C10.2143 5.06606 10.5661 4.71429 11 4.71429Z"
        fill="#F52C48" />
    <path fill-rule="evenodd" clip-rule="evenodd"
        d="M11 13.3571C10.1321 13.3571 9.42857 14.0607 9.42857 14.9286C9.42857 15.7964 10.1321 16.5 11 16.5C11.8679 16.5 12.5714 15.7964 12.5714 14.9286C12.5714 14.0607 11.8679 13.3571 11 13.3571Z"
        fill="#F52C48" />
    <path fill-rule="evenodd" clip-rule="evenodd"
        d="M0 11C0 4.92487 4.92487 0 11 0C17.0751 0 22 4.92487 22 11C22 17.0751 17.0751 22 11 22C4.92487 22 0 17.0751 0 11ZM11 1.57143C5.79274 1.57143 1.57143 5.79274 1.57143 11C1.57143 16.2073 5.79274 20.4286 11 20.4286C16.2073 20.4286 20.4286 16.2073 20.4286 11C20.4286 5.79274 16.2073 1.57143 11 1.57143Z"
        fill="#F52C48" />
</svg>
