<svg width="16" height="16" viewBox="0 0 16 16" fill="none" xmlns="http://www.w3.org/2000/svg">
    <path fill-rule="evenodd" clip-rule="evenodd"
        d="M15.8326 0.97549C16.0558 0.752333 16.0558 0.390524 15.8326 0.167368C15.6095 -0.0557892 15.2477 -0.0557892 15.0245 0.167368L8 7.19188L0.97549 0.167368C0.752333 -0.0557892 0.390524 -0.0557892 0.167368 0.167368C-0.0557892 0.390524 -0.0557892 0.752333 0.167368 0.97549L7.19188 8L0.167368 15.0245C-0.0557892 15.2477 -0.0557892 15.6095 0.167368 15.8326C0.390524 16.0558 0.752333 16.0558 0.97549 15.8326L8 8.80812L15.0245 15.8326C15.2477 16.0558 15.6095 16.0558 15.8326 15.8326C16.0558 15.6095 16.0558 15.2477 15.8326 15.0245L8.80812 8L15.8326 0.97549Z"
        fill="#2936A6" />
</svg>
