<svg width="12" height="12" viewBox="0 0 12 12" fill="none" xmlns="http://www.w3.org/2000/svg">
    <path fill-rule="evenodd" clip-rule="evenodd"
        d="M3.94286 1.45707C4.02379 1.34916 4.15082 1.28564 4.28571 1.28564H7.71429C7.84918 1.28564 7.9762 1.34916 8.05714 1.45707L9.21429 2.99993H10.7143C11.0553 2.99993 11.3823 3.13539 11.6234 3.37651C11.8645 3.61763 12 3.94465 12 4.28564V9.4285C12 9.7695 11.8645 10.0965 11.6234 10.3376C11.3823 10.5788 11.0553 10.7142 10.7143 10.7142H1.28571C0.944721 10.7142 0.617695 10.5788 0.376577 10.3376C0.135459 10.0965 0 9.7695 0 9.4285L0 4.28564C0 3.94465 0.135459 3.61763 0.376577 3.37651C0.617695 3.13539 0.944721 2.99993 1.28571 2.99993H2.78571L3.94286 1.45707ZM4.5 2.14279L3.34286 3.68564C3.26192 3.79356 3.1349 3.85707 3 3.85707H1.28571C1.17205 3.85707 1.06304 3.90223 0.982669 3.9826C0.902296 4.06297 0.857143 4.17198 0.857143 4.28564V9.4285C0.857143 9.54217 0.902296 9.65117 0.982669 9.73155C1.06304 9.81192 1.17205 9.85707 1.28571 9.85707H10.7143C10.8279 9.85707 10.937 9.81192 11.0173 9.73155C11.0977 9.65117 11.1429 9.54217 11.1429 9.4285V4.28564C11.1429 4.17198 11.0977 4.06297 11.0173 3.9826C10.937 3.90223 10.8279 3.85707 10.7143 3.85707H9C8.8651 3.85707 8.73808 3.79356 8.65714 3.68564L7.5 2.14279H4.5Z"
        fill="black" fill-opacity="0.85" />
    <path fill-rule="evenodd" clip-rule="evenodd"
        d="M6 4.9285C5.17157 4.9285 4.5 5.60007 4.5 6.4285C4.5 7.25693 5.17157 7.9285 6 7.9285C6.82843 7.9285 7.5 7.25693 7.5 6.4285C7.5 5.60007 6.82843 4.9285 6 4.9285ZM3.64286 6.4285C3.64286 5.12669 4.69819 4.07136 6 4.07136C7.30181 4.07136 8.35714 5.12669 8.35714 6.4285C8.35714 7.73032 7.30181 8.78564 6 8.78564C4.69819 8.78564 3.64286 7.73032 3.64286 6.4285Z"
        fill="black" fill-opacity="0.85" />
</svg>
