<svg width="12" height="12" viewBox="0 0 12 12" fill="none" xmlns="http://www.w3.org/2000/svg">
<g clip-path="url(#clip0_1975_28434)">
<path fill-rule="evenodd" clip-rule="evenodd" d="M4.71345 4.28571C4.95014 4.28571 5.14202 4.47759 5.14202 4.71429V9.42857C5.14202 9.66527 4.95014 9.85714 4.71345 9.85714C4.47675 9.85714 4.28488 9.66527 4.28488 9.42857V4.71429C4.28488 4.47759 4.47675 4.28571 4.71345 4.28571Z" fill="#BE1E2D"/>
<path fill-rule="evenodd" clip-rule="evenodd" d="M7.71345 4.71429C7.71345 4.47759 7.52157 4.28571 7.28488 4.28571C7.04818 4.28571 6.85631 4.47759 6.85631 4.71429V9.42857C6.85631 9.66527 7.04818 9.85714 7.28488 9.85714C7.52157 9.85714 7.71345 9.66527 7.71345 9.42857V4.71429Z" fill="#BE1E2D"/>
<path fill-rule="evenodd" clip-rule="evenodd" d="M3.42773 2.57143C3.42773 1.88944 3.69865 1.23539 4.18089 0.753154C4.66312 0.270918 5.31718 0 5.99916 0C6.68115 0 7.3352 0.270918 7.81744 0.753154C8.29967 1.23539 8.57059 1.88944 8.57059 2.57143H11.142C11.3787 2.57143 11.5706 2.76331 11.5706 3C11.5706 3.23669 11.3787 3.42857 11.142 3.42857H10.2849V10.7143C10.2849 11.0553 10.1494 11.3823 9.9083 11.6234C9.66718 11.8645 9.34016 12 8.99916 12H2.99916C2.65817 12 2.33114 11.8645 2.09003 11.6234C1.84891 11.3823 1.71345 11.0553 1.71345 10.7143V3.42857H0.856306C0.619612 3.42857 0.427734 3.23669 0.427734 3C0.427734 2.76331 0.619612 2.57143 0.856306 2.57143H3.42773ZM4.78698 1.35925C5.10847 1.03775 5.54451 0.857143 5.99916 0.857143C6.45382 0.857143 6.88985 1.03775 7.21135 1.35925C7.53284 1.68074 7.71345 2.11677 7.71345 2.57143H4.28488C4.28488 2.11677 4.46549 1.68074 4.78698 1.35925ZM2.57059 3.42857V10.7143C2.57059 10.828 2.61574 10.937 2.69612 11.0173C2.77649 11.0977 2.8855 11.1429 2.99916 11.1429H8.99916C9.11283 11.1429 9.22184 11.0977 9.30221 11.0173C9.38258 10.937 9.42773 10.8279 9.42773 10.7143V3.42857H2.57059Z" fill="#BE1E2D"/>
</g>
<defs>
<clipPath id="clip0_1975_28434">
<rect width="12" height="12" fill="white"/>
</clipPath>
</defs>
</svg>
